<svg width="26" height="36" viewBox="0 0 26 36" fill="none" xmlns="http://www.w3.org/2000/svg">
<path d="M20.9091 11.8182C20.9091 11.8182 21.2727 13.8182 20.1818 15.6364C20 15.8182 19.8182 16.1818 19.8182 16.3636C19.8182 16.3636 19.8182 16.5455 19.6364 16.5455L19.4545 16.7273L19.2727 16.9091L19.0909 17.0909C18.9091 17.2727 18.7273 17.4545 18.5455 17.4545C18.5455 17.4545 18.3636 17.4545 18.3636 17.6364C18.1818 17.8182 18 17.8182 17.8182 18C17.8182 18 17.6364 18 17.6364 18.1818C17.4545 18.3636 17.0909 18.3636 16.9091 18.5455C17.0909 18.1818 17.2727 18 17.2727 17.6364C17.2727 17.6364 17.2727 17.4545 17.4545 17.4545C17.6364 17.2727 17.6364 16.9091 17.6364 16.7273V16.5455C17.6364 16.1818 17.8182 15.8182 17.8182 15.4545C17.8182 15.0909 18 14.7273 18 14.1818C18 13.2727 18 12.3636 17.8182 11.2727C17.0909 7.63636 14.7273 3.63636 9.63636 0C9.63636 0 11.4545 2.54545 9.81818 6.90909C8.18182 11.2727 0 12.3636 0 23.6364C0 24.1818 -1.86265e-07 24.7273 0.181818 25.2727C0.727273 30.9091 6 35.2727 12.1818 35.2727C18.9091 35.2727 24.7273 29.6364 25.2727 23.6364C25.8182 18.9091 25.2727 15.0909 20.9091 11.8182Z" fill="#FF5900"/>
</svg>
