<svg width="22" height="22" viewBox="0 0 22 22" fill="none" xmlns="http://www.w3.org/2000/svg">
<path d="M20.774 5.9484C20.6413 5.69042 20.3735 5.51106 20.0639 5.51106C19.6265 5.51106 19.2727 5.86486 19.2727 6.29975C19.2727 6.44717 19.3145 6.58722 19.3857 6.70516L19.3833 6.70762C20.0442 7.99509 20.4177 9.45455 20.4177 11C20.4177 16.199 16.2015 20.4152 11.0025 20.4152C5.80344 20.4152 1.58477 16.199 1.58477 11C1.58477 5.80098 5.80098 1.58722 11 1.58722C12.5356 1.58722 13.9853 1.95577 15.2654 2.60688L15.2703 2.59705C15.3833 2.66093 15.516 2.69779 15.656 2.69779C16.0934 2.69779 16.4472 2.34398 16.4472 1.90909C16.4472 1.58722 16.2531 1.30958 15.973 1.18673C14.4791 0.427518 12.7912 0 11 0C4.92383 0 0 4.92629 0 11C0 17.0737 4.92383 22 11 22C17.0762 22 22 17.0762 22 11C22 9.17936 21.5577 7.46192 20.774 5.9484Z" fill="white" fill-opacity="0.8"/>
</svg>
